<svg id="katman_1" data-name="katman 1" xmlns="http://www.w3.org/2000/svg" xmlns:xlink="http://www.w3.org/1999/xlink" viewBox="0 0 1024.5 1024.5"><defs><style>.cls-1,.cls-6{fill:#ae2940;}.cls-1,.cls-5{stroke:#fff;stroke-linecap:round;stroke-linejoin:round;stroke-width:0.5px;}.cls-2{fill:url(#Adsız_degrade_5);}.cls-3{isolation:isolate;opacity:0.35;fill:url(#Adsız_degrade_5-2);}.cls-4,.cls-5{fill:#fff;}</style><radialGradient id="Adsız_degrade_5" cx="216.67" cy="815.56" r="0.67" gradientTransform="matrix(348.65, 0, 0, -96, -75032.07, 79121.25)" gradientUnits="userSpaceOnUse"><stop offset="0" stop-color="#f5e7b6" stop-opacity="0.85"/><stop offset="0.55" stop-color="#f5e7b6" stop-opacity="0.45"/><stop offset="1" stop-color="#f5e7b6" stop-opacity="0"/></radialGradient><radialGradient id="Adsız_degrade_5-2" cx="216.42" cy="809.03" r="0.8" gradientTransform="matrix(147.27, 0, 0, -389.24, -31360.6, 315423.64)" xlink:href="#Adsız_degrade_5"/></defs><rect class="cls-1" x="0.25" y="0.25" width="1024" height="1024"/><ellipse class="cls-2" cx="511.88" cy="827.27" rx="234.89" ry="64.68"/><ellipse class="cls-3" cx="511.88" cy="513" rx="117.31" ry="310.06"/><path class="cls-4" d="M296.26,343.31c4.88-97.32,89.43-168.38,183.66-178,100.22-9.72,189,27.88,228.67,91.8,15.25,24.14,23.65,53.38,19.47,80.61l-.54,3.57c-87-10.45-160.39-13.9-245.74-12.93C397.93,329.28,326.11,334.39,296.26,343.31Z"/><path class="cls-5" d="M296.25,343.25c129,22.23,302.58,23.17,431-2C682.41,328,583.69,320.09,512.19,320.91,438.91,321.75,339,329,296.25,343.25Z"/><path class="cls-4" d="M478.16,320.91h72.09c-1.64,101.82-3.28,212.63,6.55,295,8.19,65.89,27.86,100.33,57.35,122.79,24.57,18,55.7,26.95,86.83,31.44h0v25.46c-50.79,13.48-126.15,15-190,15-65.54,0-139.27-1.5-190.06-15V770.13c32.77-4.49,62.26-13.47,86.84-31.44,29.49-22.46,49.15-56.9,57.34-122.79C474.88,533.54,476.52,422.73,478.16,320.91Z"/><path class="cls-4" d="M320.87,773.7c118,18.71,262.15,18.71,380.11,0V819c0,10.83-16.38,16.74-37.68,20.68-88.47,15.75-216.27,15.75-304.74,0-21.3-3.94-37.69-9.85-37.69-20.68Z"/><path class="cls-6" d="M580.4,282.46a24.13,24.13,0,0,0,22.85-15.37,18.88,18.88,0,0,0,2.15-9.63l-.89-6.65a25,25,0,0,0-6.43-11,26,26,0,0,0-17.68-7.32,24.13,24.13,0,0,0-22.85,15.37,18.88,18.88,0,0,0-2.15,9.63l.89,6.65a25,25,0,0,0,6.43,11,26,26,0,0,0,17.68,7.32Z"/><path class="cls-6" d="M436.37,282.37A24.13,24.13,0,0,0,459.22,267a18.85,18.85,0,0,0,2.15-9.63l-.89-6.64a24.9,24.9,0,0,0-6.43-11,26,26,0,0,0-17.68-7.33,24.16,24.16,0,0,0-22.85,15.37,18.88,18.88,0,0,0-2.15,9.63l.89,6.65a25,25,0,0,0,6.43,11,26,26,0,0,0,17.68,7.32Z"/></svg>