<svg id="katman_1" data-name="katman 1" xmlns="http://www.w3.org/2000/svg" xmlns:xlink="http://www.w3.org/1999/xlink" viewBox="0 0 264.63 86.89"><defs><style>.cls-1{fill:url(#Adsız_degrade_5);}.cls-2{isolation:isolate;opacity:0.35;fill:url(#Adsız_degrade_5-2);}.cls-3,.cls-4,.cls-5{fill:#fff;}.cls-4{stroke:#fff;stroke-linecap:round;stroke-linejoin:round;stroke-width:0.5px;}.cls-5{font-size:73.06px;font-family:HarabaraMaisBold-HarabaraMaisBold, Harabara Mais Demo;font-weight:700;}</style><radialGradient id="Adsız_degrade_5" cx="-264" cy="509.72" r="0.06" gradientTransform="matrix(348.65, 0, 0, -96, 92064.14, 48993.85)" gradientUnits="userSpaceOnUse"><stop offset="0" stop-color="#f6e8b7" stop-opacity="0.85"/><stop offset="0.55" stop-color="#f6e8b7" stop-opacity="0.45"/><stop offset="1" stop-color="#f6e8b7" stop-opacity="0"/></radialGradient><radialGradient id="Adsız_degrade_5-2" cx="-264.3" cy="498.87" r="0.07" gradientTransform="matrix(147.27, 0, 0, -389.24, 38944.17, 194216.83)" xlink:href="#Adsız_degrade_5"/></defs><ellipse class="cls-1" cx="19.9" cy="60.56" rx="19.9" ry="5.48"/><ellipse class="cls-2" cx="19.9" cy="33.93" rx="9.94" ry="26.27"/><path class="cls-3" d="M1.63,19.56C2.05,11.31,9.21,5.29,17.19,4.47c8.5-.82,16,2.36,19.38,7.78a10.24,10.24,0,0,1,1.65,6.83l0,.3a150.88,150.88,0,0,0-20.82-1.09C10.25,18.37,4.16,18.8,1.63,19.56Z"/><path class="cls-4" d="M1.89,19.5c10.93,1.88,25.13,2,36-.14-3.8-1.12-11.92-1.77-18-1.7C13.72,17.73,5.51,18.29,1.89,19.5Z"/><path class="cls-3" d="M17,17.66h6.11c-.14,8.63-.28,18,.56,25,.69,5.58,2.36,8.5,4.86,10.41a16.41,16.41,0,0,0,7.35,2.66h0v2.16c-4.3,1.14-10.69,1.27-16.1,1.27S8,59,3.72,57.88V55.72a15.9,15.9,0,0,0,7.36-2.66c2.49-1.91,4.16-4.83,4.85-10.41C16.77,35.67,16.91,26.29,17,17.66Z"/><path class="cls-3" d="M3.72,56a109.28,109.28,0,0,0,32.2,0v3.84c0,.92-1.38,1.42-3.19,1.75a83.42,83.42,0,0,1-25.82,0c-1.8-.33-3.19-.83-3.19-1.75Z"/><path class="cls-3" d="M26.13,13.6c3.22,0,3.22-5,0-5s-3.22,5,0,5Z"/><path class="cls-3" d="M13.25,13.93c3.22,0,3.22-5,0-5s-3.22,5,0,5Z"/><text class="cls-5" transform="translate(47.35 61.37)">mantar</text></svg>