<svg id="katman_1" data-name="katman 1" xmlns="http://www.w3.org/2000/svg" xmlns:xlink="http://www.w3.org/1999/xlink" viewBox="0 0 42.04 65.91"><defs><style>.cls-1{fill:url(#Adsız_degrade_5);}.cls-2{isolation:isolate;opacity:0.35;fill:url(#Adsız_degrade_5-2);}.cls-3{fill:#ae2940;}.cls-4{fill:#dadada;stroke:#ae2940;stroke-linecap:round;stroke-linejoin:round;stroke-width:0.5px;}.cls-5{fill:#fff;}</style><radialGradient id="Adsız_degrade_5" cx="-274.94" cy="338.54" r="0.06" gradientTransform="matrix(348.65, 0, 0, -96, 95879.69, 32559.69)" gradientUnits="userSpaceOnUse"><stop offset="0" stop-color="#f6e8b7" stop-opacity="0.85"/><stop offset="0.55" stop-color="#f6e8b7" stop-opacity="0.45"/><stop offset="1" stop-color="#f6e8b7" stop-opacity="0"/></radialGradient><radialGradient id="Adsız_degrade_5-2" cx="-275.19" cy="329.02" r="0.07" gradientTransform="matrix(147.27, 0, 0, -389.24, 40549.54, 128099.88)" xlink:href="#Adsız_degrade_5"/></defs><ellipse class="cls-1" cx="21.02" cy="60.12" rx="21.02" ry="5.79"/><ellipse class="cls-2" cx="21.04" cy="31.25" rx="10.5" ry="27.75"/><path class="cls-3" d="M1.75,16.07C2.18,7.36,9.75,1,18.18.14c9-.87,16.92,2.49,20.47,8.21a10.83,10.83,0,0,1,1.74,7.21l0,.32a160,160,0,0,0-22-1.15C10.85,14.81,4.42,15.27,1.75,16.07Z"/><path class="cls-4" d="M2,16c11.54,2,26.55,2.11,38-.14-4-1.19-12.59-1.88-19-1.81C14.51,14.14,5.85,14.73,2,16Z"/><path class="cls-3" d="M18,14.06h6.45c-.15,9.12-.3,19,.58,26.4.74,5.9,2.5,9,5.14,11A17.34,17.34,0,0,0,38,54.27h0v2.27c-4.55,1.21-11.29,1.34-17,1.34-5.87,0-12.46-.13-17-1.34V54.27a16.79,16.79,0,0,0,7.77-2.82c2.64-2,4.4-5.09,5.13-11C17.73,33.09,17.88,23.18,18,14.06Z"/><path class="cls-3" d="M4,54.58a91.36,91.36,0,0,0,34,0v5.15c0,1.23-1.47,1.9-3.38,2.35a69.91,69.91,0,0,1-27.27,0C5.42,61.63,4,61,4,59.73Z"/><path class="cls-5" d="M27.62,10c3.22,0,3.23-5,0-5s-3.22,5,0,5Z"/><path class="cls-5" d="M14,10c3.21,0,3.22-5,0-5s-3.23,5,0,5Z"/></svg>
